<?xml version="1.0" encoding="utf-8"?>
<!-- Generator: Adobe Illustrator 27.3.1, SVG Export Plug-In . SVG Version: 6.00 Build 0)  -->
<svg version="1.1" xmlns="http://www.w3.org/2000/svg" xmlns:xlink="http://www.w3.org/1999/xlink" x="0px" y="0px"
	 viewBox="0 0 595.28 841.89" style="enable-background:new 0 0 595.28 841.89;" xml:space="preserve">
<style type="text/css">
	.st0{opacity:0.15;}
	.st1{fill:#FFFFFF;stroke:#706F6F;stroke-width:30;stroke-linecap:round;stroke-miterlimit:10;}
	.st2{fill:none;stroke:#706F6F;stroke-width:30;stroke-linecap:round;stroke-miterlimit:10;}
	.st3{fill:none;stroke:#706F6F;stroke-width:30;stroke-miterlimit:10;}
	.st4{fill:none;stroke:#748873;stroke-width:30;stroke-linecap:round;stroke-miterlimit:10;}
	.st5{fill:none;stroke:#3AAA35;stroke-width:30;stroke-linecap:round;stroke-linejoin:round;stroke-miterlimit:10;}
	.st6{fill:none;stroke:#3AAA35;stroke-width:30;stroke-miterlimit:10;}
</style>
<g id="Vrstva_1">
	<rect x="164.11" y="486.62" class="st0" width="279.3" height="76.23"/>
	<line class="st1" x1="447.75" y1="333.15" x2="447.75" y2="526.78"/>
	<path class="st2" d="M151.85,526.78V252.69c0-14.27,15.99-25.84,35.71-25.84h214.99"/>
	<path class="st3" d="M443.41,564.65H190.87c-21.55,0-39.02-17.47-39.02-39.02v0c0-21.55,17.47-39.02,39.02-39.02h252.54
		c2.4,0,4.34,1.94,4.34,4.34v69.35C447.75,562.71,445.81,564.65,443.41,564.65z"/>
</g>
<g id="Vrstva_2">
	<path class="st4" d="M402.56,189.82"/>
	<polyline class="st5" points="479.25,224.57 283.42,430.04 194.87,345.64 	"/>
	<path class="st6" d="M378.49,167.99"/>
</g>
</svg>
